HIERARCHY
ROOT hip
{
	OFFSET 0.000000 0.000000 0.000000
	CHANNELS 6 Xposition Yposition Zposition Xrotation Zrotation Yrotation 
	JOINT abdomen
	{
		OFFSET 0.000000 3.422050 0.000000
		CHANNELS 3 Xrotation Zrotation Yrotation 
		JOINT chest
		{
			OFFSET 0.000000 8.486693 -0.684411
			CHANNELS 3 Xrotation Zrotation Yrotation 
			JOINT neck
			{
				OFFSET 0.000000 10.266162 -0.273764
				CHANNELS 3 Xrotation Zrotation Yrotation 
				JOINT head
				{
					OFFSET 0.000000 3.148285 0.000000
					CHANNELS 3 Xrotation Zrotation Yrotation 
					End Site
					{
						OFFSET 0.000000 3.148289 0.000000
					}
				}
			}
			JOINT lCollar
			{
				OFFSET 3.422053 6.707223 -0.821293
				CHANNELS 3 Yrotation Zrotation Xrotation 
				JOINT lShldr
				{
					OFFSET 3.285171 0.000000 0.000000
					CHANNELS 3 Zrotation Yrotation Xrotation 
					JOINT lForeArm
					{
						OFFSET 10.129278 0.000000 0.000000
						CHANNELS 3 Yrotation Zrotation Xrotation 
						JOINT lHand
						{
							OFFSET 8.486692 0.000000 0.000000
							CHANNELS 3 Zrotation Yrotation Xrotation 
							End Site
							{
								OFFSET 4.106464 0.000000 0.000000
							}
						}
					}
				}
			}
			JOINT rCollar
			{
				OFFSET -3.558935 6.707223 -0.821293
				CHANNELS 3 Yrotation Zrotation Xrotation 
				JOINT rShldr
				{
					OFFSET -3.148289 0.000000 0.000000
					CHANNELS 3 Zrotation Yrotation Xrotation 
					JOINT rForeArm
					{
						OFFSET -10.266159 0.000000 0.000000
						CHANNELS 3 Yrotation Zrotation Xrotation 
						JOINT rHand
						{
							OFFSET -8.349810 0.000000 0.000000
							CHANNELS 3 Zrotation Yrotation Xrotation 
							End Site
							{
								OFFSET -4.106464 0.000000 0.000000
							}
						}
					}
				}
			}
		}
	}
	JOINT lThigh
	{
		OFFSET 5.338403 -1.642589 1.368821
		CHANNELS 3 Xrotation Zrotation Yrotation 
		JOINT lShin
		{
			OFFSET -2.053232 -20.121670 0.000000
			CHANNELS 3 Xrotation Zrotation Yrotation 
			JOINT lFoot
			{
				OFFSET 0.000000 -19.300380 -1.231939
				CHANNELS 3 Xrotation Yrotation Zrotation 
				End Site
				{
					OFFSET 0.000000 -2.463878 4.653993
				}
			}
		}
	}
	JOINT rThigh
	{
		OFFSET -5.338403 -1.642589 1.368821
		CHANNELS 3 Xrotation Zrotation Yrotation 
		JOINT rShin
		{
			OFFSET 2.053232 -20.121670 0.000000
			CHANNELS 3 Xrotation Zrotation Yrotation 
			JOINT rFoot
			{
				OFFSET 0.000000 -19.300380 -1.231939
				CHANNELS 3 Xrotation Yrotation Zrotation 
				End Site
				{
					OFFSET 0.000000 -2.463878 4.653993
				}
			}
		}
	}
}
MOTION
Frames: 13
Frame Time: 0.033264
19.995884 22.721600 11.561401 121.005341 -0.002582 179.995438 5.857216 0.000000 0.000000 39.592743 -0.001262 -0.452383 -0.000471 2.887387 -0.562313 0.060475 0.000000 0.000000 -4.141512 -11.780953 -5.036267 -47.302021 1.716863 55.024090 -15.360940 1.690323 35.937527 2.861540 0.214393 -7.676824 3.252478 5.937523 -5.771034 55.427776 -1.724359 54.935978 19.295292 0.145482 35.990192 -1.597067 -6.181490 -5.559366 -77.904533 16.086456 31.048496 31.785191 1.258949 -41.681080 -3.116739 4.550873 18.121986 -78.255600 -14.032239 -31.013821 31.796820 -1.255620 41.667580 -3.563172 -5.572271 -20.735285 
19.995884 22.721600 11.561401 121.005341 -0.002582 179.995438 6.057353 0.000000 0.000000 39.116611 -0.001283 -0.452353 0.351423 3.034288 -0.581267 0.060173 0.000000 0.000000 -4.038227 -12.080851 -4.874521 -47.085194 1.723890 55.027115 -15.360940 1.690323 35.937527 2.807817 0.131889 -7.552740 3.156497 6.205211 -5.585440 55.240025 -1.727008 54.936794 19.295292 0.145482 35.990192 -1.563093 -6.106860 -5.436232 -77.901260 16.101610 31.049036 31.785191 1.258949 -41.681080 -3.116739 4.550874 18.121986 -78.233810 -14.157102 -31.016268 31.796820 -1.255620 41.667580 -3.539508 -5.519183 -20.598396 
19.995884 22.721600 11.561401 121.005341 -0.002582 179.995438 6.257487 0.000000 0.000000 38.640518 -0.001304 -0.452324 0.703477 3.181368 -0.599328 0.059871 0.000000 0.000000 -3.933963 -12.380455 -4.712047 -46.868366 1.730902 55.030167 -15.360940 1.690323 35.937527 2.753917 0.049503 -7.428582 3.059597 6.472577 -5.399305 55.052280 -1.729658 54.937611 19.295292 0.145482 35.990192 -1.528964 -6.032305 -5.313072 -77.897995 16.116770 31.049576 31.785191 1.258949 -41.681080 -3.116739 4.550873 18.121986 -78.211983 -14.281961 -31.018764 31.796820 -1.255620 41.667580 -3.515976 -5.466039 -20.461550 
19.995884 22.721600 11.561401 121.005341 -0.002582 179.995438 6.457619 0.000000 0.000000 38.164474 -0.001324 -0.452294 1.055685 3.328619 -0.616492 0.059568 0.000000 0.000000 -3.828712 -12.679748 -4.548832 -46.651535 1.737905 55.033237 -15.360940 1.690323 35.937527 2.699838 -0.032766 -7.304348 2.961775 6.739616 -5.212623 54.864532 -1.732306 54.938442 19.295292 0.145482 35.990192 -1.494679 -5.957824 -5.189886 -77.894714 16.131924 31.050116 31.785191 1.258949 -41.681080 -3.116739 4.550874 18.121986 -78.190163 -14.406828 -31.021322 31.796820 -1.255620 41.667580 -3.492571 -5.412839 -20.324730 
19.995884 22.721600 11.561401 121.005341 -0.002582 179.995438 6.657743 0.000000 0.000000 37.688488 -0.001345 -0.452263 1.408045 3.476033 -0.632759 0.059266 0.000000 0.000000 -3.722469 -12.978725 -4.384872 -46.434723 1.744898 55.036343 -15.360940 1.690323 35.937527 2.645582 -0.114916 -7.180038 2.863030 7.006319 -5.025392 54.676792 -1.734950 54.939278 19.295292 0.145482 35.990192 -1.460238 -5.883419 -5.066674 -77.891449 16.147081 31.050652 31.785191 1.258949 -41.681080 -3.116739 4.550874 18.121986 -78.168289 -14.531682 -31.023922 31.796820 -1.255620 41.667580 -3.469297 -5.359585 -20.187950 
19.995884 22.721600 11.561401 121.005341 -0.002582 179.995438 6.857863 0.000000 0.000000 37.212597 -0.001365 -0.452233 1.760554 3.623599 -0.648125 0.058964 0.000000 0.000000 -3.615229 -13.277380 -4.220159 -46.217915 1.751876 55.039471 -15.360940 1.690323 35.937527 2.591149 -0.196946 -7.055652 2.763358 7.272676 -4.837604 54.489048 -1.737587 54.940117 19.295292 0.145482 35.990192 -1.425641 -5.809087 -4.943436 -77.888176 16.162233 31.051188 31.785191 1.258949 -41.681080 -3.116739 4.550874 18.121986 -78.146423 -14.656538 -31.026579 31.796820 -1.255620 41.667580 -3.446155 -5.306277 -20.051207 
19.995884 22.721600 11.561401 121.005341 -0.002582 179.995438 7.057975 0.000000 0.000000 36.736794 -0.001384 -0.452203 2.113209 3.771311 -0.662588 0.058661 0.000000 0.000000 -3.506984 -13.575694 -4.054683 -46.001114 1.758842 55.042633 -15.360940 1.690323 35.937527 2.536538 -0.278857 -6.931188 2.662755 7.538680 -4.649253 54.301319 -1.740227 54.940983 19.295292 0.145482 35.990192 -1.390889 -5.734830 -4.820169 -77.884911 16.177393 31.051737 31.785191 1.258949 -41.681080 -3.116739 4.550874 18.121986 -78.124535 -14.781390 -31.029284 31.796820 -1.255620 41.667580 -3.423142 -5.252915 -19.914499 
19.995884 22.721600 11.561401 121.005341 -0.002582 179.995438 7.258080 0.000000 0.000000 36.261112 -0.001404 -0.452172 2.466006 3.919158 -0.676147 0.058359 0.000000 0.000000 -3.397728 -13.873668 -3.888438 -45.784321 1.765801 55.045815 -15.360940 1.690323 35.937527 2.481752 -0.360646 -6.806651 2.561220 7.804323 -4.460337 54.113598 -1.742862 54.941841 19.295292 0.145482 35.990192 -1.355982 -5.660651 -4.696878 -77.881630 16.192547 31.052277 31.785191 1.258949 -41.681080 -3.116739 4.550874 18.121988 -78.102623 -14.906238 -31.032040 31.796820 -1.255620 41.667580 -3.400259 -5.199500 -19.777828 
19.995884 22.721600 11.561401 121.005341 -0.002582 179.995438 7.458175 0.000000 0.000000 35.785549 -0.001423 -0.452141 2.818943 4.067131 -0.688799 0.058056 0.000000 0.000000 -3.287456 -14.171288 -3.721417 -45.567539 1.772742 55.049026 -15.360940 1.690323 35.937527 2.426788 -0.442313 -6.682039 2.458748 8.069595 -4.270850 53.925884 -1.745496 54.942726 19.295292 0.145482 35.990192 -1.320920 -5.586549 -4.573560 -77.878357 16.207705 31.052824 31.785191 1.258949 -41.681080 -3.116739 4.550874 18.121986 -78.080704 -15.031088 -31.034843 31.796820 -1.255620 41.667580 -3.377506 -5.146030 -19.641191 
19.995884 22.721600 11.561401 121.005341 -0.002582 179.995438 7.658257 0.000000 0.000000 35.310154 -0.001442 -0.452110 3.172016 4.215224 -0.700543 0.057754 0.000000 0.000000 -3.176160 -14.468544 -3.553609 -45.350761 1.779668 55.052254 -15.360940 1.690323 35.937527 2.371649 -0.523858 -6.557351 2.355339 8.334494 -4.080787 53.738174 -1.748125 54.943604 19.295292 0.145482 35.990192 -1.285704 -5.512525 -4.450217 -77.875084 16.222857 31.053360 31.785191 1.258949 -41.681080 -3.116739 4.550874 18.121988 -78.058754 -15.155927 -31.037695 31.796820 -1.255620 41.667580 -3.354885 -5.092511 -19.504593 
19.995884 22.721600 11.561401 121.005341 -0.002582 179.995438 7.858328 0.000000 0.000000 34.834911 -0.001460 -0.452079 3.525223 4.363426 -0.711376 0.057452 0.000000 0.000000 -3.063835 -14.765429 -3.385009 -45.134014 1.786587 55.055519 -15.360940 1.690323 35.937527 2.316333 -0.605279 -6.432586 2.250988 8.599000 -3.890140 53.550465 -1.750749 54.944481 19.295292 0.145482 35.990192 -1.250332 -5.438578 -4.326846 -77.871811 16.238012 31.053905 31.785191 1.258949 -41.681080 -3.116739 4.550874 18.121986 -78.036789 -15.280767 -31.040611 31.796820 -1.255620 41.667580 -3.332393 -5.038937 -19.368029 
19.995884 22.721600 11.561401 121.005341 -0.002582 179.995438 8.058385 0.000000 0.000000 34.359848 -0.001479 -0.452048 3.878558 4.511728 -0.721297 0.057149 0.000000 0.000000 -2.950472 -15.061934 -3.215608 -44.917274 1.793492 55.058804 -15.360940 1.690323 35.937527 2.260841 -0.686577 -6.307746 2.145692 8.863113 -3.698907 53.362782 -1.753373 54.945389 19.295292 0.145482 35.990192 -1.214808 -5.364711 -4.203450 -77.868523 16.253168 31.054453 31.785191 1.258949 -41.681080 -3.116739 4.550873 18.121986 -78.014801 -15.405600 -31.043566 31.796820 -1.255620 41.667580 -3.310034 -4.985313 -19.231503 
19.995884 22.721600 11.561401 121.005341 -0.002582 179.995438 8.258429 0.000000 0.000000 33.884987 -0.001497 -0.452016 4.232021 4.660121 -0.730304 0.056847 0.000000 0.000000 -2.836067 -15.358046 -3.045398 -44.700546 1.800381 55.062111 -15.360940 1.690323 35.937527 2.205174 -0.767749 -6.182831 2.039449 9.126825 -3.507084 53.175110 -1.755991 54.946293 19.295292 0.145482 35.990192 -1.179129 -5.290923 -4.080028 -77.865257 16.268320 31.054996 31.785191 1.258949 -41.681080 -3.116739 4.550874 18.121986 -77.992805 -15.530428 -31.046574 31.796820 -1.255620 41.667580 -3.287805 -4.931640 -19.095022 
